<svg id="Capa_1" enable-background="new 0 0 512.001 512.001" height="512" viewBox="0 0 512.001 512.001" width="512" xmlns="http://www.w3.org/2000/svg"><g><path d="m427.641 290.045c-.828-3.847-3.836-6.85-7.684-7.673-3.885-.831-95.692-19.814-142.522 26.843-9.744 9.709-16.637 21.357-21.435 33.754-4.799-12.396-11.691-24.045-21.436-33.754-46.829-46.657-138.635-27.673-142.521-26.843-3.848.823-6.855 3.826-7.684 7.673-.835 3.873-19.897 95.395 26.953 142.075 25.52 25.427 64.394 31.359 95.121 31.358 16.793-.001 31.153-1.773 39.566-3.104v41.628c0 5.523 4.477 10 10 10 5.522 0 10-4.477 10-10v-41.627c8.412 1.331 22.771 3.103 39.566 3.103 30.726-.001 69.603-5.934 95.121-31.358 46.853-46.68 27.79-138.202 26.955-142.075zm-302.212 127.906c-32.698-32.579-25.878-96.603-22.666-117.173 20.629-3.225 84.875-10.087 117.685 22.604h.001c20.01 19.937 25.22 51.649 25.515 77.973-.02 1.733-.02 3.442-.003 5.125-.097 8.013-.614 15.385-1.246 21.584l-44.531-44.369-.002-36.338c0-5.523-4.477-10-10-10-5.523.001-10 4.478-10 10.001l.001 16.408-23.126-23.041c-3.913-3.897-10.245-3.887-14.143.026-3.898 3.912-3.887 10.244.025 14.142l23.038 22.954-16.431-.001c-.001 0-.001 0-.001 0-5.522 0-10 4.477-10 10s4.477 10 9.999 10l36.508.002 44.482 44.32c-27.36 2.791-77.421 3.366-105.105-24.217zm261.143 0c-27.609 27.508-77.701 26.963-105.085 24.198l44.462-44.3 36.508-.002c5.522 0 9.999-4.478 9.999-10 0-5.523-4.478-10-10.001-10l-16.431.001 23.038-22.954c3.912-3.898 3.924-10.23.025-14.142-3.897-3.912-10.228-3.924-14.143-.026l-23.125 23.041v-16.408c0-5.523-4.477-10-10-10.001-5.522 0-10 4.477-10 10l-.002 36.338-44.552 44.389c-.603-5.863-1.104-12.776-1.242-20.291.04-2.547.041-5.16-.006-7.824.453-26.022 5.831-56.956 25.535-76.588h.001c32.732-32.615 97.068-25.794 117.695-22.594 3.236 20.565 10.103 84.504-22.676 117.163z"/><path d="m179.8 170.049 58.237-1.648-12.911 95.046c-.632 4.651 2.057 9.116 6.463 10.733 1.13.415 2.294.614 3.444.614 3.335 0 6.548-1.674 8.428-4.615l97.449-152.459c2.003-3.134 2.102-7.121.255-10.35s-5.319-5.161-9.049-5.029l-46.665 1.72 7.073-93.304c.342-4.508-2.385-8.686-6.649-10.188-4.266-1.504-9.007.044-11.565 3.771l-103.037 150.052c-2.13 3.103-2.338 7.138-.538 10.443s5.289 5.316 9.065 5.214zm89.974-123.772-5.112 67.434c-.215 2.839.791 5.636 2.765 7.689 1.975 2.052 4.722 3.157 7.575 3.06l38.777-1.429-62.725 98.133 8.388-61.746c.396-2.91-.509-5.846-2.471-8.03-1.899-2.113-4.605-3.316-7.438-3.316-.095 0-.189.001-.284.004l-50.356 1.425z"/></g></svg>