<svg id="Capa_1" enable-background="new 0 0 512 512" height="512" viewBox="0 0 512 512" width="512" xmlns="http://www.w3.org/2000/svg"><g><path d="m400.45 251.876c37.125-37.126 22.131-109.395 21.475-112.453-.826-3.848-3.831-6.853-7.679-7.679-3.058-.657-75.328-15.65-112.453 21.475-1.835 1.835-3.542 3.756-5.13 5.749v-87.205c0-39.571-32.192-71.763-71.763-71.763s-71.763 32.192-71.763 71.763v186.55c-41.236 24.747-66.604 69.016-66.604 116.94.001 75.402 62.073 136.747 138.367 136.747s138.366-61.345 138.366-136.747c0-37.609-15.623-72.967-42.277-98.406 1.346.029 2.716.045 4.108.045 24.254 0 55.056-4.72 75.353-25.016zm-84.514-84.515c23.824-23.824 70.392-19.679 87.559-17.173 2.529 17.162 6.713 63.645-17.187 87.545-19.258 19.258-53.377 20.24-74.815 18.586l30.417-30.417 27.33-.002c5.522 0 9.999-4.478 9.999-10.001 0-5.522-4.477-9.999-10.001-9.999h-7.326l14.047-14.047c3.905-3.905 3.905-10.237 0-14.143-3.906-3.904-10.236-3.904-14.143 0l-14.047 14.047v-7.327c0-5.523-4.477-10.001-9.999-10.001-.001 0-.001 0-.001 0-5.522 0-10 4.477-10 9.999l-.002 27.33-30.443 30.443c-1.677-21.414-.716-55.512 18.612-74.84zm27.331 207.892c0 64.375-53.099 116.747-118.367 116.747s-118.366-52.372-118.366-116.747c0-42.578 23.518-81.796 61.375-102.351 3.222-1.749 5.229-5.122 5.229-8.788v-192.351c0-28.542 23.22-51.763 51.762-51.763s51.763 23.221 51.763 51.763v192.352c0 3.666 2.007 7.039 5.229 8.788 37.857 20.554 61.375 59.773 61.375 102.35z"/><path d="m270.441 293.994-17.777-9.651v-212.58c-.001-15.309-12.455-27.763-27.764-27.763s-27.763 12.454-27.763 27.763v212.58l-17.777 9.651c-30.117 16.353-48.826 47.489-48.826 81.259 0 51.141 42.332 92.747 94.366 92.747s94.366-41.606 94.366-92.747c.001-33.77-18.708-64.906-48.825-81.259zm-45.541 154.006c-41.006 0-74.366-32.634-74.366-72.747 0-26.43 14.702-50.832 38.369-63.683l23.006-12.49c3.222-1.749 5.229-5.122 5.229-8.788v-218.529c0-4.28 3.482-7.763 7.763-7.763 4.28 0 7.763 3.482 7.763 7.763v218.529c0 3.666 2.007 7.039 5.229 8.788l23.006 12.49c23.667 12.851 38.369 37.253 38.369 63.683-.001 40.113-33.362 72.747-74.368 72.747z"/></g></svg>