<?xml version="1.0" encoding="iso-8859-1"?>
<!-- Generator: Adobe Illustrator 19.0.0, SVG Export Plug-In . SVG Version: 6.00 Build 0)  -->
<svg version="1.1" id="Capa_1" xmlns="http://www.w3.org/2000/svg" xmlns:xlink="http://www.w3.org/1999/xlink" x="0px" y="0px"
	 viewBox="0 0 480 480" style="enable-background:new 0 0 480 480;" xml:space="preserve">
<g>
	<g>
		<path d="M72,104c-13.255,0-24-10.745-24-24c0-4.418-3.582-8-8-8s-8,3.582-8,8c0,13.255-10.745,24-24,24c-4.418,0-8,3.582-8,8
			s3.582,8,8,8c13.255,0,24,10.745,24,24c0,4.418,3.582,8,8,8s8-3.582,8-8c0-13.255,10.745-24,24-24c4.418,0,8-3.582,8-8
			S76.418,104,72,104z M40,120c-2.274-3.032-4.968-5.726-8-8c3.032-2.274,5.726-4.968,8-8c2.274,3.032,4.968,5.726,8,8
			C44.968,114.274,42.274,116.968,40,120z"/>
	</g>
</g>
<g>
	<g>
		<path d="M479.44,221.36c0.034-0.239,0.034-0.481,0-0.72c-0.385-0.823-0.898-1.579-1.52-2.24l-128-128
			c-1.555-1.587-3.699-2.457-5.92-2.4h-64c-4.418,0-8,3.582-8,8v48c0,4.418,3.582,8,8,8h52.72l64,64H83.28l64-64H200
			c4.418,0,8-3.582,8-8V96c0-4.418-3.582-8-8-8h-64c-2.126-0.012-4.17,0.823-5.68,2.32l-128,128c-0.622,0.661-1.135,1.417-1.52,2.24
			v0.72c-0.236,0.701-0.397,1.425-0.48,2.16L0,224v72c0,61.856,50.144,112,112,112s112-50.144,112-112v-32h32v32
			c0,61.856,50.144,112,112,112s112-50.144,112-112v-72c0,0,0,0,0-0.48C479.891,222.782,479.703,222.058,479.44,221.36z
			 M341.68,138.32c-1.51-1.497-3.554-2.332-5.68-2.32h-48v-32h52.72l112,112h-33.44L341.68,138.32z M139.28,104H192v32h-48
			c-2.126-0.012-4.17,0.823-5.68,2.32L60.72,216H27.28L139.28,104z M208,296c0,53.019-42.981,96-96,96s-96-42.981-96-96v-32h108.72
			l-42.4,42.32c-3.137,3.111-3.158,8.177-0.046,11.314c0.015,0.016,0.031,0.031,0.046,0.046c3.111,3.137,8.177,3.158,11.314,0.046
			c0.016-0.015,0.031-0.031,0.046-0.046l53.6-53.68h25.44l-42.4,42.32c-3.137,3.111-3.158,8.177-0.046,11.314
			c0.015,0.016,0.031,0.031,0.046,0.046c3.111,3.137,8.177,3.158,11.314,0.046c0.016-0.015,0.031-0.031,0.046-0.046l53.6-53.68H208
			V296z M464,296c0,53.019-42.981,96-96,96s-96-42.981-96-96v-32h108.72l-42.4,42.32c-3.137,3.111-3.158,8.177-0.046,11.314
			c0.015,0.016,0.031,0.031,0.046,0.046c3.111,3.137,8.177,3.158,11.314,0.046c0.016-0.015,0.031-0.031,0.046-0.046l53.6-53.68
			h25.44l-42.4,42.32c-3.137,3.111-3.158,8.177-0.046,11.314c0.015,0.016,0.031,0.031,0.046,0.046
			c3.111,3.137,8.177,3.158,11.314,0.046c0.016-0.015,0.031-0.031,0.046-0.046l53.6-53.68H464V296z M464,248H16v-16h448V248z"/>
	</g>
</g>
<g>
</g>
<g>
</g>
<g>
</g>
<g>
</g>
<g>
</g>
<g>
</g>
<g>
</g>
<g>
</g>
<g>
</g>
<g>
</g>
<g>
</g>
<g>
</g>
<g>
</g>
<g>
</g>
<g>
</g>
</svg>
